<svg width="160" height="41" fill="none" xmlns="http://www.w3.org/2000/svg"><path d="M59 15h-6v-2h15v2h-6v15h-3V15Zm15 3h1v3l-1-1-3 1v9h-3v-9l-1-3h3v2l2-2h2Zm14 0v12h-3v-2l-1 2h-3l-2-1-2-2-1-3 1-3 2-3h5l1 2v-2h3Zm-6 10 3-1v-6l-3-1-2 1-1 3 1 3 2 1Zm15-13c-1 0-2 0-2 2v1h3v2h-3v10h-3V20h-2v-2h2v-1l1-4 4-1 2 1v2h-2Zm15 3v12h-3v-2l-2 2h-2l-3-1-2-2v-6l2-3h5l2 2v-2h3Zm-6 10 2-1 1-3-1-3-2-1-3 1v6l3 1Zm9-16h3v18h-3V12Zm18 6v12l-1 4-5 1-5-1 1-2 4 1c2 0 3-1 3-3v-3l-1 2-3 1-3-1-2-2v-7a5 5 0 0 1 5-2h3l1 2v-2h3Zm-6 9 2-1 1-2-1-3-2-1-2 1-1 3 1 2 2 1Zm21-9v12h-3v-2l-2 2h-2l-3-1-2-2v-6l2-3h5l2 2v-2h3Zm-6 10 2-1 1-3-1-3-2-1-2 1-1 3 1 3 2 1Zm16-10h1v3l-2-1-2 1-1 2v7h-3V18h3v2l2-2h2Z" fill="#233348"/><circle cx="20.5" cy="20.5" r="20.5" fill="#458FF6"/><path d="M19 15h-6v-3h16v3h-6v16h-4V15Z" fill="#fff"/></svg>