<svg width="92" height="90" fill="none" xmlns="http://www.w3.org/2000/svg"><g clip-path="url(#a)"><path d="m56 43-9 9L9 89a5 5 0 0 1-8-1c-2-2-1-5 1-7l45-37 5-4 4 3Z" fill="url(#b)"/><path d="m47 52-9 9-1-9 5-4 5 4Z" fill="#3A81D6" fill-opacity=".8"/><path d="M92 30c0 16-13 30-30 30a30 30 0 0 1-29-30A30 30 0 0 1 82 7c6 6 10 14 10 23Z" fill="url(#c)"/><path d="M62 53c13 0 23-10 23-23S75 7 62 7C50 7 39 17 39 30s11 23 23 23Z" fill="#fff"/><path opacity=".1" d="M92 30c0 16-13 30-30 30-10 0-19-5-24-14 33-2 42-31 44-39 6 6 10 14 10 23Z" fill="#1A6FB5" fill-opacity=".5"/><path d="M62 30c3 0 5-2 5-5s-2-5-5-5c-2 0-5 2-5 5s3 5 5 5Zm0 2c-3 0-9 2-9 5v2l1 1h17l1-1v-2c0-3-6-5-10-5Z" fill="url(#d)"/></g><defs><linearGradient id="b" x1="5.7" y1="84.3" x2="53.9" y2="40.8" gradientUnits="userSpaceOnUse"><stop stop-color="#67C3F3"/><stop offset="1" stop-color="#5A98F2"/></linearGradient><linearGradient id="c" x1="50" y1="2.1" x2="72.8" y2="52.9" gradientUnits="userSpaceOnUse"><stop stop-color="#67C3F3"/><stop offset="1" stop-color="#5A98F2"/></linearGradient><linearGradient id="d" x1="55.3" y1="28.4" x2="72.9" y2="36.9" gradientUnits="userSpaceOnUse"><stop stop-color="#B0F4FF"/><stop offset=".1" stop-color="#A6F1FF"/><stop offset=".3" stop-color="#8BE8FD"/><stop offset=".5" stop-color="#78E1FD"/><stop offset=".8" stop-color="#6DDDFC"/><stop offset="1" stop-color="#69DCFC"/></linearGradient><clipPath id="a"><path fill="#fff" d="M0 0h92v90H0z"/></clipPath></defs></svg>