<svg width="62" height="85" fill="none" xmlns="http://www.w3.org/2000/svg"><g clip-path="url(#a)"><path d="M62 26v48c0 6-6 11-13 11H13C6 85 0 80 0 74V26c0-5 4-9 9-10v-4h44v4c5 1 9 6 9 10Z" fill="url(#b)"/><path d="M56 2v9l-1 1H8l-2-2V1l2-1h47l1 2Z" fill="url(#c)"/><path d="M56 2v8H6V2h50Z" fill="url(#d)"/><path d="M62 35H0v27h62V35Z" fill="#F7F9FC"/><path d="M62 35H0v5h62v-5Z" fill="#FBFCF7"/><path d="M24 46h-4v-4h-5v4h-4v5h4v4h5v-4h4v-5Z" fill="url(#e)"/><path d="M51 47H32l-1-1v-1l1-1 19 1 1 1-1 1Z" fill="url(#f)"/><path opacity=".5" d="M51 53H32l-1-1v-1l1-1h19l1 1v1l-1 1Z" fill="url(#g)"/><path opacity=".1" d="M6 2v9l2 1h47l1-2C31 11 8 0 8 0L6 2Z" fill="#1A6FB5"/></g><defs><linearGradient id="b" x1="0" y1="11.3" x2="57.1" y2="90.2" gradientUnits="userSpaceOnUse"><stop stop-color="#6CBCFC"/><stop offset="1" stop-color="#458DFC"/></linearGradient><linearGradient id="c" x1="-629.9" y1="-39.9" x2="-27.6" y2="2" gradientUnits="userSpaceOnUse"><stop stop-color="#B0F4FF"/><stop offset=".1" stop-color="#A9F2FF"/><stop offset=".3" stop-color="#8DE8FE"/><stop offset=".5" stop-color="#79E1FD"/><stop offset=".8" stop-color="#6DDDFC"/><stop offset="1" stop-color="#69DCFC"/></linearGradient><linearGradient id="d" x1="6.1" y1="6.1" x2="56.1" y2="6.1" gradientUnits="userSpaceOnUse"><stop stop-color="#B0F4FF"/><stop offset=".1" stop-color="#A9F2FF"/><stop offset=".3" stop-color="#8DE8FE"/><stop offset=".5" stop-color="#79E1FD"/><stop offset=".8" stop-color="#6DDDFC"/><stop offset="1" stop-color="#69DCFC"/></linearGradient><linearGradient id="e" x1="22" y1="43.1" x2="12.6" y2="53.9" gradientUnits="userSpaceOnUse"><stop stop-color="#6CBCFC"/><stop offset="1" stop-color="#458DFC"/></linearGradient><linearGradient id="f" x1="52.4" y1="45.7" x2="28.9" y2="45.7" gradientUnits="userSpaceOnUse"><stop stop-color="#6CBCFC"/><stop offset="1" stop-color="#458DFC"/></linearGradient><linearGradient id="g" x1="30.6" y1="51.5" x2="52.2" y2="51.5" gradientUnits="userSpaceOnUse"><stop stop-color="#6CBCFC"/><stop offset="1" stop-color="#458DFC"/></linearGradient><clipPath id="a"><path fill="#fff" d="M0 0h62v85H0z"/></clipPath></defs></svg>