<svg width="68" height="95" fill="none" xmlns="http://www.w3.org/2000/svg"><g clip-path="url(#a)"><path d="M65 0H2L0 2v91l2 2h63l2-2V2l-2-2Z" fill="url(#b)"/><path d="M61 4H6L4 6v75l2 2h55l2-2V6l-2-2Z" fill="#fff"/><path d="M45 40H23l-2-2V16l2-2h22l2 2v22l-2 2Z" fill="url(#c)"/><path d="M34 93c2 0 3-2 3-4s-1-3-3-3-4 1-4 3 2 4 4 4Z" fill="#fff"/><path d="M53 51H14l-2-2 2-2h39l2 2-2 2Z" fill="url(#d)"/><path opacity=".6" d="M46 61H14l-2-1 2-2h32l2 2-2 1Z" fill="url(#e)"/><path opacity=".3" d="M40 67H14l-2-1 2-1h26l1 1-1 1Z" fill="url(#f)"/><path opacity=".6" d="M44 73H14l-2-1v-1l2-1h30l1 1v1l-1 1Z" fill="url(#g)"/><path d="M34 26a4 4 0 1 0 0-8 4 4 0 0 0 0 8Zm0 2c-3 0-8 1-8 4v1l1 1h14l1-1v-1c0-3-6-4-8-4Z" fill="#fff"/></g><defs><linearGradient id="b" x1="4.1" y1="45" x2="67.3" y2="50.5" gradientUnits="userSpaceOnUse"><stop stop-color="#6CBCFC"/><stop offset="1" stop-color="#458DFC"/></linearGradient><linearGradient id="c" x1="18.7" y1="19.3" x2="48.5" y2="34.7" gradientUnits="userSpaceOnUse"><stop stop-color="#B0F4FF"/><stop offset=".1" stop-color="#A3F0FE"/><stop offset=".3" stop-color="#8AE7FD"/><stop offset=".5" stop-color="#77E1FD"/><stop offset=".7" stop-color="#6DDDFC"/><stop offset="1" stop-color="#69DCFC"/></linearGradient><linearGradient id="d" x1="54.8" y1="49.3" x2="12.5" y2="49.3" gradientUnits="userSpaceOnUse"><stop stop-color="#6CBCFC"/><stop offset="1" stop-color="#458DFC"/></linearGradient><linearGradient id="e" x1="47.6" y1="59.6" x2="12.5" y2="59.6" gradientUnits="userSpaceOnUse"><stop stop-color="#6CBCFC"/><stop offset="1" stop-color="#458DFC"/></linearGradient><linearGradient id="f" x1="41.2" y1="65.8" x2="12.5" y2="65.8" gradientUnits="userSpaceOnUse"><stop stop-color="#6CBCFC"/><stop offset="1" stop-color="#458DFC"/></linearGradient><linearGradient id="g" x1="44.7" y1="71.5" x2="12.5" y2="71.5" gradientUnits="userSpaceOnUse"><stop stop-color="#6CBCFC"/><stop offset="1" stop-color="#458DFC"/></linearGradient><clipPath id="a"><path fill="#fff" d="M0 0h67v95H0z"/></clipPath></defs></svg>