<svg width="68" height="95" fill="none" xmlns="http://www.w3.org/2000/svg"><g clip-path="url(#a)"><path d="M68 90c0 3-2 5-5 5H5a4 4 0 0 1-4-4V7c0-3 2-5 4-5h58c3 0 5 2 5 5v83Z" fill="url(#b)"/><path d="M62 90H7c-2 0-3-1-3-2V10c0-2 1-3 3-3h55c1 0 2 1 2 3v78l-2 2Z" fill="#fff"/><path d="M54 14H14c-1 0-3-1-3-3V5c0-2 2-3 3-3h40c1 0 2 1 2 3v6c0 2-1 3-2 3ZM14 3l-1 2v6l1 2 40-1 1-1V5l-1-2H14Z" fill="url(#c)"/><path d="M53 5H15V0h38l1 1v3l-1 1Z" fill="url(#d)"/><path d="M15 5h38l1-1V3H15v2ZM29 81l-4-19-2 8h-8l-1-1h8l4-15 3 20 4-13 2 6 6-12 4 19 2-6h6v2h-5l-3 10-5-20-5 12-2-6-4 15Z" fill="#58D6F4"/><path d="M23 43H12c-1 0-3-1-3-3V26c0-2 2-3 3-3h11c2 0 3 1 3 3v14c0 2-1 3-3 3ZM12 23c-1 0-2 1-2 3v14c0 2 1 3 2 3h11c1 0 2-1 2-3V26c0-2-1-3-2-3H12Z" fill="url(#e)"/><path d="M18 41c5 0 6-3 6-3l-1-1-2-2h-1v-3l1-2h-1c1 0 1-4-2-4-4 0-3 4-3 4h-1l1 2 1 1v2h-1l-3 2-1 1s2 3 7 3Z" fill="url(#f)"/><path d="M51 27H30v-1h21v1Z" fill="url(#g)"/><path d="M43 31H30v-1h14l-1 1Z" fill="url(#h)"/><path opacity=".6" d="M58 36H30v-2h28v2Z" fill="url(#i)"/><path opacity=".6" d="M57 49H11v-2h46l1 1-1 1Z" fill="url(#j)"/><path opacity=".6" d="M58 40H30v-1h28v1Z" fill="url(#k)"/></g><defs><linearGradient id="b" x1="-8.7" y1="34.7" x2="77" y2="62.6" gradientUnits="userSpaceOnUse"><stop stop-color="#6CBCFC"/><stop offset=".2" stop-color="#5EABFC"/><stop offset=".4" stop-color="#509AFC"/><stop offset=".7" stop-color="#4890FC"/><stop offset="1" stop-color="#458DFC"/></linearGradient><linearGradient id="c" x1="-4.6" y1="-21.4" x2="56.4" y2="8" gradientUnits="userSpaceOnUse"><stop stop-color="#CFE9FF"/><stop offset="1" stop-color="#A1D6FB"/></linearGradient><linearGradient id="d" x1="14.7" y1="2.6" x2="53.6" y2="2.6" gradientUnits="userSpaceOnUse"><stop stop-color="#B0F4FF"/><stop offset="1" stop-color="#69DCFC"/></linearGradient><linearGradient id="e" x1="14.8" y1="29.2" x2="24.6" y2="41.8" gradientUnits="userSpaceOnUse"><stop stop-color="#6CBCFC"/><stop offset="1" stop-color="#458DFC"/></linearGradient><linearGradient id="f" x1="13.7" y1="30" x2="23.5" y2="42.7" gradientUnits="userSpaceOnUse"><stop stop-color="#B0F4FF"/><stop offset=".1" stop-color="#A1EFFE"/><stop offset=".3" stop-color="#88E7FD"/><stop offset=".5" stop-color="#77E1FD"/><stop offset=".7" stop-color="#6CDDFC"/><stop offset="1" stop-color="#69DCFC"/></linearGradient><linearGradient id="g" x1="29.6" y1="26.6" x2="51.2" y2="26.6" gradientUnits="userSpaceOnUse"><stop stop-color="#6CBCFC"/><stop offset="1" stop-color="#458DFC"/></linearGradient><linearGradient id="h" x1="29.6" y1="30.4" x2="43.8" y2="30.4" gradientUnits="userSpaceOnUse"><stop stop-color="#6CBCFC"/><stop offset="1" stop-color="#458DFC"/></linearGradient><linearGradient id="i" x1="29.6" y1="35" x2="58.2" y2="35" gradientUnits="userSpaceOnUse"><stop stop-color="#6CBCFC"/><stop offset="1" stop-color="#458DFC"/></linearGradient><linearGradient id="j" x1="10.7" y1="47.9" x2="57.7" y2="47.9" gradientUnits="userSpaceOnUse"><stop stop-color="#6CBCFC"/><stop offset="1" stop-color="#458DFC"/></linearGradient><linearGradient id="k" x1="29.6" y1="39.5" x2="58.2" y2="39.5" gradientUnits="userSpaceOnUse"><stop stop-color="#6CBCFC"/><stop offset="1" stop-color="#458DFC"/></linearGradient><clipPath id="a"><path fill="#fff" transform="translate(1)" d="M0 0h67v95H0z"/></clipPath></defs></svg>