<svg width="70" height="95" fill="none" xmlns="http://www.w3.org/2000/svg"><g clip-path="url(#a)"><path d="M69 4v87c0 2-2 4-4 4H4c-2 0-4-2-4-4V4c0-2 2-4 4-4h61c2 0 4 2 4 4Z" fill="url(#b)"/><path d="M65 8v79c0 2-2 4-4 4H8c-2 0-4-2-4-4V8c0-2 2-4 4-4h53c2 0 4 2 4 4Z" fill="url(#c)"/><path d="M27 18v4l-1 1h-5v6h-4l-1-1v-5h-5l-1-1v-4h6v-6h5v5l1 1h5Z" fill="url(#d)"/><path opacity=".5" d="M59 40H11l-1-1v-2h49v3Z" fill="url(#e)"/><path d="M59 17H35l-1-1v-1l1-1h24v3Z" fill="url(#f)"/><path opacity=".5" d="M52 25H35l-1-1v-2h18v3Z" fill="url(#g)"/><path opacity=".5" d="M59 48H10v-2l1-1h48v3Z" fill="url(#h)"/><path opacity=".5" d="M59 57H11l-1-1v-1l1-1h48v3Z" fill="url(#i)"/><path opacity=".5" d="M59 66H11l-1-1v-2h49v3Z" fill="url(#j)"/><path opacity=".5" d="M59 74H10v-2l1-1h48v3Z" fill="url(#k)"/><path opacity=".5" d="M59 83H11l-1-1v-2h49v3Z" fill="url(#l)"/><path opacity=".1" d="M69 4v87c0 2-2 4-4 4H4c-2 0-4-2-4-4v-2C37 74 54 15 58 0h7c2 0 4 2 4 4Z" fill="#1A6FB5" fill-opacity=".4"/></g><defs><linearGradient id="b" x1="95" y1="126" x2="-6" y2="-5.5" gradientUnits="userSpaceOnUse"><stop offset=".3" stop-color="#5BA7FC"/><stop offset="1" stop-color="#69B8FC"/></linearGradient><linearGradient id="c" x1="8.6" y1="7" x2="57.9" y2="78" gradientUnits="userSpaceOnUse"><stop offset=".3" stop-color="#fff"/><stop offset="1" stop-color="#fff"/></linearGradient><linearGradient id="d" x1="10" y1="9.5" x2="25" y2="34" gradientUnits="userSpaceOnUse"><stop stop-color="#B0F4FF"/><stop offset=".4" stop-color="#80E4FD"/><stop offset="1" stop-color="#6CDDFC"/></linearGradient><linearGradient id="e" x1="10.3" y1="38.2" x2="59.1" y2="38.2" gradientUnits="userSpaceOnUse"><stop stop-color="#6CBCFC"/><stop offset="1" stop-color="#458DFC"/></linearGradient><linearGradient id="f" x1="34.3" y1="15.6" x2="59.1" y2="15.6" gradientUnits="userSpaceOnUse"><stop stop-color="#6CBCFC"/><stop offset="1" stop-color="#458DFC"/></linearGradient><linearGradient id="g" x1="34.3" y1="23.3" x2="52.1" y2="23.3" gradientUnits="userSpaceOnUse"><stop stop-color="#6CBCFC"/><stop offset="1" stop-color="#458DFC"/></linearGradient><linearGradient id="h" x1="10.3" y1="46.8" x2="59.1" y2="46.8" gradientUnits="userSpaceOnUse"><stop stop-color="#6CBCFC"/><stop offset="1" stop-color="#458DFC"/></linearGradient><linearGradient id="i" x1="10.3" y1="55.5" x2="59.1" y2="55.5" gradientUnits="userSpaceOnUse"><stop stop-color="#6CBCFC"/><stop offset="1" stop-color="#458DFC"/></linearGradient><linearGradient id="j" x1="10.3" y1="64.1" x2="59.1" y2="64.1" gradientUnits="userSpaceOnUse"><stop stop-color="#6CBCFC"/><stop offset="1" stop-color="#458DFC"/></linearGradient><linearGradient id="k" x1="10.3" y1="72.7" x2="59.1" y2="72.7" gradientUnits="userSpaceOnUse"><stop stop-color="#6CBCFC"/><stop offset="1" stop-color="#458DFC"/></linearGradient><linearGradient id="l" x1="10.3" y1="81.3" x2="59.1" y2="81.3" gradientUnits="userSpaceOnUse"><stop stop-color="#6CBCFC"/><stop offset="1" stop-color="#458DFC"/></linearGradient><clipPath id="a"><path fill="#fff" d="M0 0h69v95H0z"/></clipPath></defs></svg>